<mxfile host="Electron" agent="Mozilla/5.0 (Windows NT 10.0; Win64; x64) AppleWebKit/537.36 (KHTML, like Gecko) draw.io/24.7.8 Chrome/128.0.6613.36 Electron/32.0.1 Safari/537.36" version="24.7.8">
  <diagram name="Page-1" id="JXdEZ5sa7kSGQfPGai0q">
    <mxGraphModel dx="683" dy="398" grid="1" gridSize="10" guides="1" tooltips="1" connect="1" arrows="1" fold="1" page="1" pageScale="1" pageWidth="1100" pageHeight="850" math="0" shadow="0">
      <root>
        <mxCell id="0" />
        <mxCell id="1" parent="0" />
        <mxCell id="djroDKn9Spi4HhPKzQUC-1" value="" style="rounded=0;whiteSpace=wrap;html=1;snapToPoint=1;arcSize=12;" parent="1" vertex="1">
          <mxGeometry x="320" y="120" width="120" height="160" as="geometry" />
        </mxCell>
        <mxCell id="djroDKn9Spi4HhPKzQUC-4" value="Master&lt;div&gt;SoC&lt;/div&gt;" style="text;html=1;align=center;verticalAlign=middle;resizable=0;points=[];autosize=1;strokeColor=none;fillColor=none;" parent="1" vertex="1">
          <mxGeometry x="350" y="180" width="60" height="40" as="geometry" />
        </mxCell>
        <mxCell id="djroDKn9Spi4HhPKzQUC-44" value="P&lt;sub&gt;3,2&lt;/sub&gt;" style="text;html=1;align=center;verticalAlign=middle;resizable=1;points=[];autosize=1;strokeColor=none;fillColor=none;" parent="1" vertex="1">
          <mxGeometry x="320" y="185" width="30" height="30" as="geometry" />
        </mxCell>
        <mxCell id="djroDKn9Spi4HhPKzQUC-46" value="" style="verticalLabelPosition=bottom;shadow=0;dashed=0;align=center;html=1;verticalAlign=top;shape=mxgraph.electrical.transistors.nmos;pointerEvents=1;strokeWidth=1;" parent="1" vertex="1">
          <mxGeometry x="470" y="178" width="30" height="44" as="geometry" />
        </mxCell>
        <mxCell id="djroDKn9Spi4HhPKzQUC-47" value="" style="pointerEvents=1;verticalLabelPosition=bottom;shadow=0;dashed=0;align=center;html=1;verticalAlign=top;shape=mxgraph.electrical.signal_sources.protective_earth;strokeWidth=1;" parent="1" vertex="1">
          <mxGeometry x="489" y="220" width="20" height="15" as="geometry" />
        </mxCell>
        <mxCell id="djroDKn9Spi4HhPKzQUC-48" value="" style="verticalLabelPosition=bottom;shadow=0;dashed=0;align=center;html=1;verticalAlign=top;shape=mxgraph.electrical.opto_electronics.led_2;pointerEvents=1;direction=south;strokeWidth=1;" parent="1" vertex="1">
          <mxGeometry x="490" y="157" width="21" height="32" as="geometry" />
        </mxCell>
        <mxCell id="djroDKn9Spi4HhPKzQUC-49" value="" style="pointerEvents=1;verticalLabelPosition=bottom;shadow=0;dashed=0;align=center;html=1;verticalAlign=top;shape=mxgraph.electrical.resistors.resistor_2;direction=south;strokeWidth=1;" parent="1" vertex="1">
          <mxGeometry x="494" y="110" width="10" height="50" as="geometry" />
        </mxCell>
        <mxCell id="djroDKn9Spi4HhPKzQUC-50" value="V&lt;sub&gt;dd&lt;/sub&gt;" style="verticalLabelPosition=top;verticalAlign=bottom;shape=mxgraph.electrical.signal_sources.vdd;shadow=0;dashed=0;align=center;strokeWidth=1;fontSize=24;html=1;flipV=1;noLabel=1;" parent="1" vertex="1">
          <mxGeometry x="491" y="101" width="16" height="12" as="geometry" />
        </mxCell>
        <mxCell id="djroDKn9Spi4HhPKzQUC-51" value="V&lt;sub&gt;dd2&lt;/sub&gt;" style="text;html=1;align=center;verticalAlign=middle;resizable=0;points=[];autosize=1;strokeColor=none;fillColor=none;strokeWidth=1;" parent="1" vertex="1">
          <mxGeometry x="477" y="76" width="44" height="30" as="geometry" />
        </mxCell>
        <mxCell id="djroDKn9Spi4HhPKzQUC-52" value="" style="endArrow=none;html=1;rounded=0;entryX=0.5;entryY=0;entryDx=0;entryDy=0;entryPerimeter=0;exitX=0;exitY=0.5;exitDx=0;exitDy=0;exitPerimeter=0;strokeWidth=1;" parent="1" source="djroDKn9Spi4HhPKzQUC-49" target="djroDKn9Spi4HhPKzQUC-50" edge="1">
          <mxGeometry width="50" height="50" relative="1" as="geometry">
            <mxPoint x="469" y="100.5" as="sourcePoint" />
            <mxPoint x="519" y="50.5" as="targetPoint" />
          </mxGeometry>
        </mxCell>
        <mxCell id="djroDKn9Spi4HhPKzQUC-53" value="" style="endArrow=none;html=1;rounded=0;entryX=1;entryY=0.5;entryDx=0;entryDy=0;entryPerimeter=0;exitX=0;exitY=0.57;exitDx=0;exitDy=0;exitPerimeter=0;strokeWidth=1;" parent="1" source="djroDKn9Spi4HhPKzQUC-48" target="djroDKn9Spi4HhPKzQUC-49" edge="1">
          <mxGeometry width="50" height="50" relative="1" as="geometry">
            <mxPoint x="469" y="100.5" as="sourcePoint" />
            <mxPoint x="519" y="50.5" as="targetPoint" />
          </mxGeometry>
        </mxCell>
        <mxCell id="djroDKn9Spi4HhPKzQUC-54" value="" style="endArrow=none;html=1;rounded=0;exitX=1;exitY=0.57;exitDx=0;exitDy=0;exitPerimeter=0;entryX=1;entryY=0;entryDx=0;entryDy=0;entryPerimeter=0;strokeWidth=1;" parent="1" source="djroDKn9Spi4HhPKzQUC-48" target="djroDKn9Spi4HhPKzQUC-46" edge="1">
          <mxGeometry width="50" height="50" relative="1" as="geometry">
            <mxPoint x="469" y="100.5" as="sourcePoint" />
            <mxPoint x="519" y="50.5" as="targetPoint" />
          </mxGeometry>
        </mxCell>
        <mxCell id="djroDKn9Spi4HhPKzQUC-55" value="" style="endArrow=none;html=1;rounded=0;entryX=1;entryY=1;entryDx=0;entryDy=0;entryPerimeter=0;exitX=0.5;exitY=0;exitDx=0;exitDy=0;exitPerimeter=0;strokeWidth=1;" parent="1" source="djroDKn9Spi4HhPKzQUC-47" target="djroDKn9Spi4HhPKzQUC-46" edge="1">
          <mxGeometry width="50" height="50" relative="1" as="geometry">
            <mxPoint x="469" y="100.5" as="sourcePoint" />
            <mxPoint x="519" y="50.5" as="targetPoint" />
          </mxGeometry>
        </mxCell>
        <mxCell id="djroDKn9Spi4HhPKzQUC-56" value="" style="endArrow=none;html=1;rounded=0;exitX=0;exitY=0.5;exitDx=0;exitDy=0;exitPerimeter=0;" parent="1" source="djroDKn9Spi4HhPKzQUC-46" edge="1">
          <mxGeometry width="50" height="50" relative="1" as="geometry">
            <mxPoint x="480" y="230" as="sourcePoint" />
            <mxPoint x="440" y="200" as="targetPoint" />
          </mxGeometry>
        </mxCell>
        <mxCell id="djroDKn9Spi4HhPKzQUC-57" value="ABS&lt;span style=&quot;font-size: 10px;&quot;&gt;led&lt;/span&gt;" style="text;html=1;align=center;verticalAlign=middle;resizable=1;points=[];autosize=1;strokeColor=none;fillColor=none;strokeWidth=1;" parent="1" vertex="1">
          <mxGeometry x="434" y="178" width="60" height="30" as="geometry" />
        </mxCell>
        <mxCell id="FBvTsTJXSQNa4DerWJb3-1" value="ABS&lt;span style=&quot;font-size: 10px;&quot;&gt;int&lt;/span&gt;" style="text;html=1;align=center;verticalAlign=middle;resizable=1;points=[];autosize=1;strokeColor=none;fillColor=none;strokeWidth=1;" vertex="1" parent="1">
          <mxGeometry x="260" y="178" width="60" height="30" as="geometry" />
        </mxCell>
        <mxCell id="FBvTsTJXSQNa4DerWJb3-2" value="" style="endArrow=none;html=1;rounded=0;exitX=0;exitY=0.5;exitDx=0;exitDy=0;" edge="1" parent="1" source="djroDKn9Spi4HhPKzQUC-1">
          <mxGeometry width="50" height="50" relative="1" as="geometry">
            <mxPoint x="380" y="340" as="sourcePoint" />
            <mxPoint x="280" y="200" as="targetPoint" />
          </mxGeometry>
        </mxCell>
        <mxCell id="FBvTsTJXSQNa4DerWJb3-3" value="P&lt;sub&gt;3,3&lt;/sub&gt;" style="text;html=1;align=center;verticalAlign=middle;resizable=1;points=[];autosize=1;strokeColor=none;fillColor=none;" vertex="1" parent="1">
          <mxGeometry x="400" y="185" width="50" height="30" as="geometry" />
        </mxCell>
      </root>
    </mxGraphModel>
  </diagram>
</mxfile>
